# xmcd CD database file
#
# Track frame offsets:
#	150
#	39380
#	74025
#	94600
#	121717
#	145762
#
# Disc length: 2245 seconds
#
# Revision: 0
# Processed by: cddbd v1.5.2PL0 Copyright (c) Steve Scherf et al.
# Submitted via: CDex 1.51
#
DISCID=4c08c306
DTITLE=Buddy Rich Quintet with Dave Lambert Singers - At Birdland - November 7 and 8 1956
DYEAR=1956
DGENRE=Jazz
TTITLE0=Four
TTITLE1=If I were a bell
TTITLE2=In a prescribed manner
TTITLE3=The Cinch
TTITLE4=I don't wanna be kissed
TTITLE5=Ev'ry day
EXTD=YEAR: 1956
EXTT0=
EXTT1=
EXTT2=
EXTT3=
EXTT4=
EXTT5=
PLAYORDER=
